<svg width="40" height="41" viewBox="0 0 40 41" fill="none" xmlns="http://www.w3.org/2000/svg">
<g clip-path="url(#clip0_571_958)">
<path d="M20.0156 40.5312C31.0699 40.5312 40.0312 31.5699 40.0312 20.5156C40.0312 9.46128 31.0699 0.5 20.0156 0.5C8.96128 0.5 0 9.46128 0 20.5156C0 31.5699 8.96128 40.5312 20.0156 40.5312Z" fill="url(#paint0_linear_571_958)"/>
<path fill-rule="evenodd" clip-rule="evenodd" d="M9.04139 20.2972C14.8715 17.7407 18.7686 16.0884 20.7327 15.2778C26.2822 12.9707 27.4358 12.5654 28.184 12.5342C28.3399 12.5342 28.714 12.5654 28.9635 12.7524C29.1505 12.9083 29.2129 13.1265 29.244 13.2824C29.2752 13.4383 29.3064 13.7813 29.2752 14.0618C28.9635 17.2107 27.6852 24.9114 26.9993 28.4344C26.7187 29.9309 26.1575 30.4297 25.6275 30.4921C24.474 30.5856 23.5698 29.7127 22.4475 28.9956C20.7016 27.8421 19.7039 27.125 17.9892 26.0026C16.025 24.6932 17.3033 23.9761 18.4256 22.8226C18.7062 22.5108 23.8504 17.8654 23.944 17.429C23.944 17.3666 23.9751 17.1795 23.8504 17.086C23.7257 16.9925 23.5698 17.0237 23.4451 17.0548C23.2581 17.086 20.4521 18.9566 14.9962 22.6355C14.1856 23.1967 13.4685 23.4461 12.8138 23.4461C12.0967 23.4461 10.7249 23.0408 9.69611 22.6979C8.44903 22.2926 7.45137 22.0743 7.5449 21.3884C7.60725 21.0455 8.10608 20.6714 9.04139 20.2972Z" fill="white"/>
</g>
<defs>
<linearGradient id="paint0_linear_571_958" x1="0" y1="20.5011" x2="40.0022" y2="20.5011" gradientUnits="userSpaceOnUse">
<stop stop-color="#2AABEE"/>
<stop offset="1" stop-color="#229ED9"/>
</linearGradient>
<clipPath id="clip0_571_958">
<rect width="40" height="40" fill="white" transform="translate(0 0.5)"/>
</clipPath>
</defs>
</svg>
