<svg width="40" height="41" viewBox="0 0 40 41" fill="none" xmlns="http://www.w3.org/2000/svg">
<g clip-path="url(#clip0_571_953)">
<path d="M40 20.4998C40 9.4541 31.0457 0.499802 20 0.499802C8.9543 0.499802 0 9.4541 0 20.4998C0 30.4824 7.31371 38.7564 16.875 40.2568V26.2811H11.7969V20.4998H16.875V16.0936C16.875 11.0811 19.8609 8.3123 24.4293 8.3123C26.6175 8.3123 28.9062 8.70293 28.9062 8.70293V13.6248H26.3843C23.8998 13.6248 23.125 15.1665 23.125 16.7481V20.4998H28.6719L27.7852 26.2811H23.125V40.2568C32.6863 38.7564 40 30.4824 40 20.4998Z" fill="#1877F2"/>
<path d="M27.7852 26.2812L28.6719 20.5H23.125V16.7483C23.125 15.1667 23.8998 13.625 26.3843 13.625H28.9063V8.70312C28.9063 8.70312 26.6175 8.3125 24.4293 8.3125C19.8609 8.3125 16.875 11.0812 16.875 16.0938V20.5H11.7969V26.2812H16.875V40.257C17.8932 40.4168 18.9369 40.5 20 40.5C21.0631 40.5 22.1068 40.4168 23.125 40.257V26.2812H27.7852Z" fill="white"/>
</g>
<defs>
<clipPath id="clip0_571_953">
<rect width="40" height="40" fill="white" transform="translate(0 0.5)"/>
</clipPath>
</defs>
</svg>
