<svg width="32" height="32" viewBox="0 0 32 32" fill="none" xmlns="http://www.w3.org/2000/svg">
<g clip-path="url(#clip0_492_1880)">
<path d="M24.9124 13.4737C24.4646 11.9298 23.65 10.5172 22.538 9.3563C21.426 8.19543 20.0497 7.32081 18.5264 6.80708C17.0215 6.36904 15.4398 6.2614 13.8894 6.49153C12.339 6.72166 10.8567 7.28413 9.54397 8.14041C9.43595 8.24866 9.30049 8.32545 9.15213 8.36254C9.00377 8.39962 8.84812 8.39561 8.70186 8.35094C8.40701 8.25542 8.14135 8.08636 7.92993 7.85971C7.77603 7.58202 7.72626 7.25853 7.78958 6.94743C7.82979 6.7981 7.90041 6.65869 7.99701 6.53793C8.09362 6.41718 8.21413 6.31768 8.35099 6.24567C12.0703 4.07024 15.7194 3.50883 19.2282 4.63164C20.9556 5.20622 22.5327 6.15979 23.8441 7.42256C25.1554 8.68533 26.1678 10.2253 26.8071 11.9299H31.5089C30.5475 8.13759 28.2299 4.82895 24.9945 2.62954C21.759 0.430125 17.8298 -0.507628 13.9497 -0.00642174C10.0697 0.494785 6.50777 2.40021 3.93738 5.34961C1.36699 8.299 -0.0337126 12.0879 0.000110254 16.0001C0.000110254 16.6316 0.0702857 17.193 0.0702857 17.8246H6.0352C6.26301 17.8117 6.48884 17.8732 6.6787 17.9997C6.86855 18.1263 7.01214 18.3111 7.08783 18.5264C7.54617 20.065 8.3645 21.4722 9.47503 22.6316C10.5856 23.7909 11.9563 24.669 13.4738 25.193C14.9787 25.6311 16.5605 25.7387 18.1108 25.5086C19.6612 25.2785 21.1435 24.716 22.4563 23.8597C22.5643 23.7515 22.6997 23.6747 22.8481 23.6376C22.9964 23.6005 23.1521 23.6045 23.2984 23.6492C23.5932 23.7447 23.8589 23.9138 24.0703 24.1404C24.2242 24.4181 24.274 24.7416 24.2106 25.0527C24.1704 25.202 24.0998 25.3414 24.0032 25.4622C23.9066 25.5829 23.7861 25.6824 23.6492 25.7544C21.5339 27.1778 19.041 27.9354 16.4913 27.9299C15.2312 27.9204 13.9788 27.7314 12.772 27.3685C11.0373 26.8076 9.45326 25.8589 8.14003 24.5943C6.82681 23.3297 5.81899 21.7825 5.19309 20.0702H0.561514C1.57601 23.8002 3.90651 27.0367 7.12223 29.1817C10.338 31.3266 14.2215 32.2349 18.0549 31.7386C21.8884 31.2423 25.4125 29.375 27.976 26.4818C30.5395 23.5887 31.9689 19.8654 32.0001 16.0001C32.0132 15.4144 31.9897 14.8284 31.9299 14.2457H26.0352C25.7959 14.2299 25.5653 14.1498 25.3677 14.014C25.1701 13.8781 25.0128 13.6915 24.9124 13.4737Z" fill="#100A42"/>
<path d="M16.0678 22.9997C17.4493 22.9864 18.796 22.5646 19.9383 21.7874C21.0805 21.0102 21.9673 19.9123 22.4868 18.6322C23.0063 17.352 23.1353 15.9467 22.8577 14.5933C22.58 13.2399 21.9081 11.9989 20.9265 11.0266C19.9449 10.0544 18.6976 9.39435 17.3416 9.12967C15.9856 8.86498 14.5816 9.00748 13.3064 9.53921C12.0312 10.0709 10.9419 10.9681 10.1757 12.1178C9.40945 13.2674 9.00055 14.6181 9.00049 15.9997C9.00045 16.9246 9.18371 17.8404 9.5397 18.6941C9.89568 19.5478 10.4173 20.3225 11.0745 20.9734C11.7316 21.6243 12.5113 22.1385 13.3683 22.4863C14.2254 22.8341 15.1429 23.0086 16.0678 22.9997Z" fill="white"/>
</g>
<defs>
<clipPath id="clip0_492_1880">
<rect width="32" height="32" fill="white"/>
</clipPath>
</defs>
</svg>
